<svg width="96" height="96" viewBox="0 0 96 96" fill="none" xmlns="http://www.w3.org/2000/svg">
<rect x="0.542969" y="0.0874634" width="95.3678" height="95.3678" rx="10.5964" fill="white"/>
<path d="M40.7761 44.0461H55.6773C56.5006 44.0461 57.1674 43.3793 57.1674 42.556V41.0659C57.1674 40.2426 56.5006 39.5758 55.6773 39.5758H40.7761C39.9528 39.5758 39.286 40.2426 39.286 41.0659V42.556C39.286 43.3793 39.9528 44.0461 40.7761 44.0461ZM39.286 51.4967C39.286 52.32 39.9528 52.9869 40.7761 52.9869H55.6773C56.5006 52.9869 57.1674 52.32 57.1674 51.4967V50.0066C57.1674 49.1833 56.5006 48.5165 55.6773 48.5165H40.7761C39.9528 48.5165 39.286 49.1833 39.286 50.0066V51.4967ZM48.2267 62.7779C46.6975 62.7779 45.1682 62.3066 43.8625 61.3632L24.3848 47.2927V67.143C24.3848 69.612 26.3862 71.6134 28.8551 71.6134H67.5983C70.0672 71.6134 72.0687 69.612 72.0687 67.143V47.2927L52.5909 61.3632C51.2852 62.3057 49.756 62.7779 48.2267 62.7779ZM70.3559 39.1054C69.5317 38.4591 68.7503 37.8509 67.5983 36.9811V32.8702C67.5983 30.4013 65.5969 28.3999 63.1279 28.3999H55.9055C55.6224 28.195 55.3588 28.0031 55.0636 27.7889C53.498 26.6462 50.3874 23.8969 48.2267 23.9295C46.066 23.8969 42.9563 26.6462 41.3898 27.7889C41.0946 28.0031 40.8311 28.195 40.5479 28.3999H33.3255C30.8566 28.3999 28.8551 30.4013 28.8551 32.8702V36.9811C27.7031 37.85 26.9217 38.4591 26.0975 39.1054C25.564 39.5235 25.1325 40.0575 24.8358 40.6669C24.5391 41.2763 24.3849 41.9453 24.3848 42.6231V43.6149L33.3255 50.0737V32.8702H63.1279V50.0737L72.0687 43.6149V42.6231C72.0687 41.2503 71.4372 39.953 70.3559 39.1054Z" fill="#06685F"/>
</svg>
