<svg width="97" height="96" viewBox="0 0 97 96" fill="none" xmlns="http://www.w3.org/2000/svg">
<rect x="0.714844" y="0.0874634" width="95.3678" height="95.3678" rx="10.5964" fill="white"/>
<path d="M48.3986 26.5786C42.6376 26.5786 37.9677 31.2484 37.9677 37.0094C37.9677 41.6669 44.785 50.1556 47.3969 53.2368C47.9259 53.861 48.8721 53.861 49.4003 53.2368C52.0121 50.1556 58.8294 41.6669 58.8294 37.0094C58.8294 31.2484 54.1596 26.5786 48.3986 26.5786ZM48.3986 40.4864C46.478 40.4864 44.9216 38.93 44.9216 37.0094C44.9216 35.0888 46.478 33.5325 48.3986 33.5325C50.3192 33.5325 51.8755 35.0888 51.8755 37.0094C51.8755 38.93 50.3192 40.4864 48.3986 40.4864ZM26.2223 44.4559C25.7307 44.6525 25.3093 44.9919 25.0124 45.4303C24.7155 45.8687 24.5568 46.3859 24.5566 46.9154V67.638C24.5566 68.5751 25.5029 69.2159 26.3729 68.8682L37.8022 63.666V44.3706C37.0704 43.0477 36.4718 41.7596 36.043 40.5277L26.2223 44.4559ZM48.3986 56.3537C47.2338 56.3537 46.1319 55.8421 45.3761 54.9496C43.7486 53.029 42.0176 50.8419 40.4513 48.5984V63.6652L56.3459 68.9634V48.5992C54.7796 50.8419 53.0494 53.0299 51.4211 54.9505C50.6652 55.8421 49.5634 56.3537 48.3986 56.3537ZM70.4242 39.9201L58.995 45.1223V68.9642L70.5749 64.3324C71.0666 64.1359 71.488 63.7965 71.7849 63.3581C72.0818 62.9197 72.2405 62.4024 72.2405 61.8729V41.1503C72.2405 40.2132 71.2943 39.5724 70.4242 39.9201Z" fill="#FFBC0A"/>
</svg>
