<svg width="96" height="96" viewBox="0 0 96 96" fill="none" xmlns="http://www.w3.org/2000/svg">
<rect x="0.350586" y="0.0874634" width="95.3678" height="95.3678" rx="10.5964" fill="white"/>
<path d="M64.4259 26.9097H31.6432C30.4576 26.9097 29.3205 27.3807 28.4822 28.219C27.6438 29.0574 27.1729 30.1944 27.1729 31.38V64.1627C27.1729 65.3483 27.6438 66.4854 28.4822 67.3237C29.3205 68.1621 30.4576 68.6331 31.6432 68.6331H64.4259C65.6115 68.6331 66.7486 68.1621 67.5869 67.3237C68.4253 66.4854 68.8963 65.3483 68.8963 64.1627V31.38C68.8963 30.1944 68.4253 29.0574 67.5869 28.219C66.7486 27.3807 65.6115 26.9097 64.4259 26.9097ZM62.8994 55.5358L61.5025 61.5895C61.4315 61.8972 61.2583 62.1719 61.0112 62.3686C60.7641 62.5653 60.4576 62.6725 60.1418 62.6726C45.2406 62.6726 33.1333 50.5924 33.1333 35.6641C33.1444 35.3513 33.2556 35.0502 33.4506 34.8053C33.6456 34.5603 33.914 34.3844 34.2165 34.3035L40.2701 32.9065C40.3734 32.8846 40.4784 32.8725 40.5839 32.8702C40.8541 32.8838 41.1157 32.9695 41.3415 33.1184C41.5673 33.2672 41.7492 33.4738 41.8682 33.7167L44.6622 40.236C44.7307 40.4118 44.7688 40.5979 44.7749 40.7864C44.7522 41.2 44.5683 41.5881 44.2627 41.8677L40.7339 44.7548C42.872 49.2866 46.5194 52.9339 51.0511 55.072L53.9382 51.5432C54.2178 51.2376 54.606 51.0538 55.0195 51.031C55.208 51.0371 55.3942 51.0752 55.5699 51.1437L62.0892 53.9377C62.3322 54.0565 62.5389 54.2384 62.6878 54.4643C62.8367 54.6901 62.9223 54.9518 62.9358 55.222C62.9339 55.3275 62.9217 55.4326 62.8994 55.5358Z" fill="#FFBC0A"/>
</svg>
