<svg width="71" height="71" viewBox="0 0 71 71" fill="none" xmlns="http://www.w3.org/2000/svg">
<rect x="0.667969" y="0.914307" width="69.5385" height="69.5385" rx="34.7692" fill="#1DA678"/>
<g clip-path="url(#clip0_23_1644)">
<path d="M34.3342 29.3027C34.3342 29.3027 34.2465 29.215 34.0712 29.0398C33.896 28.8645 33.5708 28.7768 33.0959 28.7768C32.6209 28.7768 32.2194 28.9408 31.8915 29.2688C31.5635 29.5967 31.3995 29.9982 31.3995 30.4732H32.553C32.553 30.3148 32.6096 30.1848 32.7227 30.083C32.8358 29.9812 32.9602 29.9303 33.0959 29.9303C33.2768 29.9303 33.4125 29.9869 33.503 30.1C33.5935 30.2131 33.6387 30.3375 33.6387 30.4732H34.8261C34.8487 30.0434 34.6848 29.6533 34.3342 29.3027ZM38.9821 29.3027C38.9821 29.3027 38.9001 29.215 38.7361 29.0398C38.5722 28.8645 38.2527 28.7768 37.7777 28.7768C37.3028 28.7768 36.8956 28.9408 36.5564 29.2688C36.2171 29.5967 36.0475 29.9982 36.0475 30.4732H37.2349C37.2349 30.3148 37.2914 30.1848 37.4045 30.083C37.5176 29.9812 37.642 29.9303 37.7777 29.9303C37.936 29.9303 38.0661 29.9869 38.1679 30.1C38.2697 30.2131 38.3205 30.3375 38.3205 30.4732H39.4741C39.4741 30.0434 39.3101 29.6533 38.9821 29.3027ZM37.0992 45.0955C37.0992 45.0955 36.9861 44.9824 36.7599 44.7562C36.5338 44.5301 36.0927 44.417 35.4368 44.417C34.7809 44.417 34.2267 44.6431 33.7744 45.0955C33.322 45.5479 33.0959 46.102 33.0959 46.7579C33.0959 47.4138 33.322 47.9679 33.7744 48.4203C34.2267 48.8727 34.7809 49.0988 35.4368 49.0988C36.0927 49.0988 36.6468 48.8727 37.0992 48.4203C37.5515 47.9679 37.7777 47.4138 37.7777 46.7579C37.7777 46.102 37.5515 45.5479 37.0992 45.0955ZM36.251 47.5721C36.251 47.5721 36.1945 47.6287 36.0814 47.7418C35.9683 47.8549 35.7534 47.9114 35.4368 47.9114C35.1201 47.9114 34.8487 47.7983 34.6226 47.5721C34.3964 47.346 34.2833 47.0745 34.2833 46.7579C34.2833 46.4412 34.3964 46.1698 34.6226 45.9437C34.8487 45.7175 35.1201 45.6044 35.4368 45.6044C35.7534 45.6044 36.0249 45.7175 36.251 45.9437C36.4772 46.1698 36.5903 46.4412 36.5903 46.7579C36.5903 47.0745 36.4772 47.346 36.251 47.5721ZM49.3127 51.3719V43.8741C49.3127 42.6754 49.0866 41.5445 48.6342 40.4815C48.1592 39.4185 47.5259 38.4911 46.7343 37.6995C45.9427 36.9079 45.0267 36.2859 43.9863 35.8336C42.9232 35.3812 41.7924 35.155 40.5936 35.155H40.0508C40.1413 35.0419 40.2374 34.9458 40.3392 34.8666C40.441 34.7875 40.5484 34.7027 40.6615 34.6122H41.2722C42.0638 34.6122 42.7423 34.3295 43.3077 33.764C43.8732 33.1986 44.1559 32.5201 44.1559 31.7284V30.6767C44.4952 30.4505 44.7722 30.1509 44.9871 29.7777C45.202 29.4045 45.3094 28.9804 45.3094 28.5054C45.3094 28.0531 45.202 27.6346 44.9871 27.2501C44.7722 26.8656 44.4952 26.549 44.1559 26.3002C44.1107 25.1241 43.8619 24.0271 43.4095 23.0093C42.9346 21.9689 42.3069 21.0642 41.5266 20.2952C40.7463 19.5262 39.8246 18.9155 38.7616 18.4632C37.7212 18.0108 36.6129 17.7846 35.4368 17.7846C34.2607 17.7846 33.1524 18.0108 32.112 18.4632C31.049 18.9155 30.1273 19.5262 29.347 20.2952C28.5667 21.0642 27.9503 21.9689 27.498 23.0093C27.0456 24.0271 26.8081 25.1241 26.7855 26.3002C26.4463 26.549 26.1692 26.8543 25.9543 27.2162C25.7395 27.5781 25.632 28.0078 25.632 28.5054C25.632 29.2292 25.8865 29.8455 26.3954 30.3544C26.9043 30.8633 27.5206 31.1178 28.2444 31.1178H28.6515C28.7872 31.9094 29.0529 32.6501 29.4488 33.34C29.8446 34.0298 30.3252 34.6348 30.8906 35.155H30.28C29.0812 35.155 27.9616 35.3812 26.9212 35.8336C25.8582 36.2859 24.9365 36.9079 24.1562 37.6995C23.3759 38.4911 22.7596 39.4185 22.3072 40.4815C21.8549 41.5445 21.6287 42.6754 21.6287 43.8741V51.4398H18.0664V52.5933H52.8072V51.4398H49.3127V51.3719ZM43.0024 31.6606C43.0024 32.1129 42.8497 32.4918 42.5444 32.7971C42.2391 33.1025 41.8828 33.2891 41.4757 33.3569C41.6793 33.0176 41.8489 32.6614 41.9846 32.2882C42.1203 31.915 42.2221 31.5249 42.29 31.1178H42.731H42.8328H43.0024V31.6606ZM44.1559 28.5054C44.1559 28.9125 44.0202 29.2518 43.7488 29.5232C43.4774 29.7946 43.1381 29.9303 42.731 29.9303H42.4257V27.0466H42.731C43.0929 27.0466 43.4208 27.1823 43.7149 27.4537C44.0089 27.7251 44.1559 28.0757 44.1559 28.5054ZM28.5158 29.9303H28.2444C27.8146 29.9303 27.4641 29.7946 27.1926 29.5232C26.9212 29.2518 26.7855 28.9125 26.7855 28.5054C26.7855 28.0757 26.9212 27.7251 27.1926 27.4537C27.4641 27.1823 27.8146 27.0466 28.2444 27.0466H28.5158V29.9303ZM28.2444 25.8931H28.1087H27.939C28.0069 24.9205 28.2557 24.0045 28.6854 23.145C29.0925 22.2856 29.6297 21.5392 30.2969 20.9059C30.9641 20.2726 31.7388 19.775 32.6209 19.4131C33.503 19.0512 34.4416 18.8703 35.4368 18.8703C36.432 18.8703 37.3706 19.0512 38.2527 19.4131C39.1348 19.775 39.9094 20.2726 40.5767 20.9059C41.2439 21.5392 41.7811 22.2856 42.1882 23.145C42.6179 24.0045 42.8667 24.9205 42.9346 25.8931H42.7649H42.6292H42.2221C41.9507 24.242 41.1704 22.868 39.8812 21.771C38.592 20.674 37.0879 20.1256 35.3689 20.1256C33.65 20.1256 32.1459 20.6797 30.8567 21.788C29.5675 22.8962 28.7872 24.2646 28.5158 25.8931H28.2444ZM41.2043 27.0466C39.1009 26.9787 37.4215 26.5886 36.1662 25.8761C34.9109 25.1637 34.2833 24.4116 34.2833 23.62C34.2833 23.4391 34.2211 23.3034 34.0967 23.2129C33.9723 23.1224 33.8422 23.0772 33.7065 23.0772C33.5482 23.0772 33.4182 23.1337 33.3164 23.2468C33.2146 23.3599 33.1637 23.4843 33.1637 23.62C33.1637 24.3438 32.8358 24.9771 32.1798 25.5199C31.5239 26.0627 30.7097 26.3907 29.7371 26.5038C29.8728 25.0562 30.4892 23.8349 31.5861 22.8397C32.6831 21.8445 33.9893 21.3469 35.5046 21.3469C37.0426 21.3243 38.3771 21.8671 39.508 22.9754C40.6389 24.0837 41.2043 25.4407 41.2043 27.0466ZM29.6693 29.9303V27.5894C30.5514 27.5215 31.3656 27.2841 32.112 26.8769C32.8584 26.4698 33.4125 25.9609 33.7744 25.3503C34.4077 26.1419 35.3859 26.8034 36.709 27.335C38.0322 27.8665 39.5532 28.1662 41.2722 28.234V29.9303C41.2722 30.5862 41.1704 31.2082 40.9668 31.7963C40.7633 32.3844 40.4805 32.9272 40.1187 33.4248H35.5046V34.6122H38.9312C38.7729 34.7479 38.6033 34.8666 38.4223 34.9684C38.2414 35.0702 38.0491 35.155 37.8456 35.2229C37.0766 35.5621 36.2793 35.7318 35.4538 35.7318C34.6282 35.7318 33.8196 35.5621 33.028 35.2229C32.0328 34.7705 31.2242 34.0694 30.6023 33.1194C29.9803 32.1695 29.6693 31.1065 29.6693 29.9303ZM33.6387 36.6817C33.9327 36.7496 34.2267 36.8118 34.5208 36.8683C34.8148 36.9249 35.1201 36.9531 35.4368 36.9531C35.7534 36.9531 36.0588 36.9305 36.3528 36.8853C36.6468 36.84 36.9409 36.7722 37.2349 36.6817L35.4368 40.244L33.6387 36.6817ZM34.4868 40.9225H33.4351L31.196 36.3085H32.2138L34.4868 40.9225ZM38.6598 36.3085H39.6776L37.3706 40.9225H36.3189L38.6598 36.3085ZM24.4446 43.8741V51.4398H22.6804V43.8741C22.6804 42.8563 22.8614 41.9064 23.2232 41.0243C23.5851 40.1196 24.094 39.3336 24.7499 38.6664C25.4058 37.9992 26.1748 37.462 27.0569 37.0549C27.9164 36.6478 28.855 36.4216 29.8728 36.3764L32.2138 40.9904H27.3284C26.5367 40.9452 25.8582 41.2109 25.2928 41.7877C24.7273 42.3644 24.4446 43.0599 24.4446 43.8741ZM45.2416 51.3719H25.632V43.8741C25.632 43.3992 25.796 42.9921 26.124 42.6528C26.4519 42.3135 26.8534 42.1439 27.3284 42.1439H43.5452C44.0202 42.1439 44.4217 42.3135 44.7496 42.6528C45.0776 42.9921 45.2416 43.3992 45.2416 43.8741V51.3719ZM48.1932 51.3719H46.4968V43.8741C46.4968 43.0825 46.2141 42.404 45.6487 41.8385C45.0832 41.2731 44.4047 40.9904 43.6131 40.9904H38.6598L41.0007 36.3764C41.9959 36.4442 42.9346 36.6817 43.8166 37.0888C44.6761 37.496 45.4338 38.0388 46.0897 38.7173C46.7456 39.3958 47.2658 40.1761 47.6503 41.0582C48.0122 41.9403 48.1932 42.879 48.1932 43.8741V51.3719ZM43.0024 46.1472H44.1559V50.1845H43.0024V46.1472ZM43.0024 43.8741H44.1559V45.0276H43.0024V43.8741ZM48.1932 23.0093H49.3806V24.1628H48.1932V23.0093ZM48.1932 25.3503H49.3806V26.5038H48.1932V25.3503ZM48.1932 27.5894H49.3806V28.7768H48.1932V27.5894ZM21.5608 29.9303H22.7483V31.1178H21.5608V29.9303ZM21.5608 32.2713H22.7483V33.4248H21.5608V32.2713ZM21.5608 34.6122H22.7483V35.7657H21.5608V34.6122Z" fill="#FFBC0A"/>
</g>
<defs>
<clipPath id="clip0_23_1644">
<rect width="34.7692" height="35.9282" fill="white" transform="matrix(1 0 0 -1 18.0522 53.0681)"/>
</clipPath>
</defs>
</svg>
