<svg width="50" height="51" viewBox="0 0 50 51" fill="none" xmlns="http://www.w3.org/2000/svg">
<rect y="0.640015" width="50" height="50" rx="10" fill="white"/>
<path d="M36.9141 25.9232C36.9141 32.8324 32.1826 37.7494 25.1953 37.7494C18.4961 37.7494 13.0859 32.3392 13.0859 25.64C13.0859 18.9408 18.4961 13.5306 25.1953 13.5306C28.457 13.5306 31.2012 14.7269 33.3154 16.6996L30.0195 19.8685C25.708 15.7084 17.6904 18.8334 17.6904 25.64C17.6904 29.8636 21.0645 33.2865 25.1953 33.2865C29.9902 33.2865 31.7871 29.849 32.0703 28.0668H25.1953V23.9017H36.7236C36.8359 24.5219 36.9141 25.1176 36.9141 25.9232Z" fill="#1DA678"/>
</svg>
