<svg width="60" height="60" viewBox="0 0 60 60" fill="none" xmlns="http://www.w3.org/2000/svg">
<path d="M50.625 3.75H9.375C6.26953 3.75 3.75 6.26953 3.75 9.375V50.625C3.75 53.7305 6.26953 56.25 9.375 56.25H50.625C53.7305 56.25 56.25 53.7305 56.25 50.625V9.375C56.25 6.26953 53.7305 3.75 50.625 3.75ZM49.9219 50.625H10.0781C9.69141 50.625 9.375 50.3086 9.375 49.9219V10.0781C9.375 9.69141 9.69141 9.375 10.0781 9.375H49.9219C50.3086 9.375 50.625 9.69141 50.625 10.0781V49.9219C50.625 50.3086 50.3086 50.625 49.9219 50.625Z" fill="#1DA678" fill-opacity="0.35"/>
</svg>
