<svg width="71" height="71" viewBox="0 0 71 71" fill="none" xmlns="http://www.w3.org/2000/svg">
<rect x="0.808105" y="0.914185" width="69.5385" height="69.5385" rx="34.7692" fill="#FFBC0A"/>
<g clip-path="url(#clip0_23_1636)">
<path d="M30.1492 45.2649C29.9908 45.2649 29.8665 45.3101 29.776 45.4006C29.6855 45.4911 29.6403 45.6155 29.6403 45.7738V47.9451C29.6403 48.0808 29.6855 48.1995 29.776 48.3013C29.8665 48.4031 29.9852 48.454 30.1322 48.454C30.2792 48.454 30.4036 48.4031 30.5054 48.3013C30.6072 48.1995 30.6581 48.0808 30.6581 47.9451V45.7738C30.6581 45.7059 30.6411 45.6381 30.6072 45.5702C30.5733 45.5024 30.5337 45.4458 30.4884 45.4006C30.4432 45.3554 30.3923 45.3214 30.3358 45.2988C30.2792 45.2762 30.217 45.2649 30.1492 45.2649ZM41.0057 45.2649C40.9152 45.2649 40.8304 45.2875 40.7512 45.3327C40.6721 45.378 40.6099 45.4402 40.5646 45.5193C40.5194 45.5985 40.4968 45.6833 40.4968 45.7738V47.9451C40.4968 48.0808 40.5477 48.1995 40.6494 48.3013C40.7512 48.4031 40.87 48.454 41.0057 48.454C41.0961 48.454 41.181 48.4314 41.2601 48.3861C41.3393 48.3409 41.4015 48.2787 41.4467 48.1995C41.4919 48.1204 41.5146 48.0356 41.5146 47.9451V45.7738C41.5146 45.7059 41.5033 45.6381 41.4806 45.5702C41.458 45.5024 41.4241 45.4458 41.3789 45.4006C41.3336 45.3554 41.2771 45.3214 41.2092 45.2988C41.1414 45.2762 41.0735 45.2649 41.0057 45.2649ZM26.0101 34.4423C25.2185 34.0352 24.0537 33.8316 22.5157 33.8316C22.38 33.8316 22.2613 33.8825 22.1595 33.9843C22.0577 34.0861 22.0068 34.2048 22.0068 34.3405C22.0068 34.4762 22.0577 34.595 22.1595 34.6968C22.2613 34.7985 22.38 34.8494 22.5157 34.8494C23.8954 34.8494 24.9132 35.0078 25.5691 35.3244L25.7726 35.3923C25.9988 35.3923 26.1571 35.3018 26.2476 35.1208C26.2702 35.0756 26.2872 35.0247 26.2985 34.9682C26.3098 34.9116 26.3098 34.8551 26.2985 34.7985C26.2872 34.742 26.2702 34.6911 26.2476 34.6459C26.225 34.6006 26.1911 34.5611 26.1458 34.5271C26.1006 34.4932 26.0554 34.4649 26.0101 34.4423ZM20.8872 44.1792C20.842 44.1792 20.7911 44.1849 20.7346 44.1962C20.678 44.2075 20.6271 44.2301 20.5819 44.2641C20.5367 44.298 20.5027 44.3376 20.4801 44.3828C20.4575 44.428 20.4349 44.4733 20.4123 44.5185C20.3896 44.5637 20.3783 44.6203 20.3783 44.6881V47.9451C20.3783 48.0808 20.4292 48.1995 20.531 48.3013C20.6328 48.4031 20.7515 48.454 20.8872 48.454C20.9551 48.454 21.0116 48.4427 21.0569 48.4201C21.1021 48.3974 21.1473 48.3692 21.1926 48.3352C21.2378 48.3013 21.2774 48.2674 21.3113 48.2335C21.3452 48.1995 21.3679 48.1543 21.3792 48.0978C21.3905 48.0412 21.3961 47.9903 21.3961 47.9451V44.6881C21.3961 44.5298 21.3452 44.4054 21.2435 44.3149C21.1417 44.2245 21.0229 44.1792 20.8872 44.1792ZM51.7604 42.2793L49.6909 41.2276C49.6909 41.2276 49.6909 41.2163 49.6909 41.1937V40.1759C49.9623 39.9723 50.2111 39.7405 50.4372 39.4804C50.6634 39.2203 50.85 38.9263 50.997 38.5983C51.144 38.2704 51.2402 37.9368 51.2854 37.5975C51.6699 36.919 51.8622 36.1952 51.8622 35.4262C51.8622 34.0013 51.2854 32.8478 50.1319 31.9657C50.1545 31.8978 50.1715 31.83 50.1828 31.7621C50.1941 31.6943 50.2054 31.6264 50.2167 31.5586C50.228 31.4907 50.2337 31.4229 50.2337 31.355C50.2337 30.6765 49.9679 30.1054 49.4364 29.6417C48.9049 29.1781 48.2716 28.9462 47.5365 28.9462C46.8014 28.9462 46.1738 29.1781 45.6536 29.6417C45.1334 30.1054 44.8733 30.6765 44.8733 31.355C44.8733 31.5586 44.8959 31.7621 44.9411 31.9657C44.8507 32.0335 44.7659 32.107 44.6867 32.1862C44.6075 32.2654 44.5284 32.3445 44.4492 32.4237C44.37 32.5029 44.2965 32.582 44.2287 32.6612C44.1608 32.7403 44.093 32.8308 44.0251 32.9326C43.9573 33.0344 43.8951 33.1305 43.8385 33.221C43.782 33.3114 43.7311 33.4076 43.6859 33.5093C43.6406 33.6111 43.5954 33.7186 43.5502 33.8316C43.3918 32.452 43.2561 30.9818 43.143 29.4212C42.9847 27.1142 42.2044 25.2708 40.8021 23.8912C40.1236 23.2353 39.3433 22.732 38.4612 22.3814C37.5791 22.0309 36.6178 21.8556 35.5774 21.8556C34.537 21.8556 33.5758 22.0309 32.6937 22.3814C31.8116 22.732 31.0313 23.2353 30.3527 23.8912C28.9504 25.2708 28.1701 27.1142 28.0118 29.4212C27.9666 29.9866 27.9213 30.5521 27.8761 31.1175H23.0585C22.1764 31.1175 21.4187 31.4342 20.7854 32.0675C20.1522 32.7008 19.8355 33.4584 19.8355 34.3405V34.3745C19.8355 34.8042 19.926 35.2 20.1069 35.5619L20.3783 36.1047V36.919C20.3783 38.276 20.9212 39.3504 22.0068 40.142V40.8544C22.0068 40.9675 21.9616 41.0354 21.8711 41.058L19.7677 41.6687C19.3153 41.8044 18.9421 42.0645 18.6481 42.449C18.354 42.8335 18.207 43.2632 18.207 43.7382V47.9451C18.207 48.0808 18.2579 48.1995 18.3597 48.3013C18.4615 48.4031 18.5802 48.454 18.7159 48.454C18.8064 48.454 18.8912 48.4314 18.9704 48.3861C19.0495 48.3409 19.1117 48.2787 19.157 48.1995C19.2022 48.1204 19.2248 48.0356 19.2248 47.9451V43.7382C19.2248 43.4894 19.2983 43.2632 19.4453 43.0597C19.5924 42.8561 19.7903 42.7204 20.0391 42.6525L22.1425 42.0419C22.1877 42.0419 22.2273 42.0306 22.2613 42.0079C22.2952 41.9853 22.3235 41.974 22.3461 41.974L23.6353 43.2632V47.9451C23.6353 48.0356 23.6579 48.1204 23.7031 48.1995C23.7484 48.2787 23.8106 48.3409 23.8897 48.3861C23.9689 48.4314 24.0537 48.454 24.1442 48.454C24.2346 48.454 24.3195 48.4314 24.3986 48.3861C24.4778 48.3409 24.54 48.2787 24.5852 48.1995C24.6305 48.1204 24.6531 48.0356 24.6531 47.9451V43.2632L25.9762 41.9401C26.0893 42.0079 26.2476 42.0645 26.4512 42.1097L26.9601 42.2793C26.1911 42.7996 25.8066 43.5233 25.8066 44.4506V47.9451C25.8066 48.0808 25.8575 48.1995 25.9592 48.3013C26.061 48.4031 26.1854 48.454 26.3324 48.454C26.4795 48.454 26.5982 48.4031 26.6887 48.3013C26.7791 48.1995 26.8244 48.0808 26.8244 47.9451V44.4506C26.8244 44.2471 26.8696 44.0435 26.9601 43.84C27.0505 43.6364 27.1693 43.4555 27.3163 43.2971C27.4633 43.1388 27.6386 43.0144 27.8422 42.924L30.7259 41.6347C31.2009 42.5621 31.8738 43.2971 32.7446 43.84C33.6153 44.3828 34.5653 44.6542 35.5944 44.6542C36.6235 44.6542 37.5678 44.3828 38.4272 43.84C39.2867 43.2971 39.9539 42.5621 40.4289 41.6347L43.3127 42.924C43.5162 43.0144 43.6915 43.1388 43.8385 43.2971C43.9855 43.4555 44.1043 43.6364 44.1948 43.84C44.2852 44.0435 44.3305 44.2471 44.3305 44.4506V47.9451C44.3305 48.0808 44.3757 48.1995 44.4662 48.3013C44.5566 48.4031 44.681 48.454 44.8394 48.454C44.9298 48.454 45.0146 48.4314 45.0938 48.3861C45.173 48.3409 45.2352 48.2787 45.2804 48.1995C45.3256 48.1204 45.3483 48.0356 45.3483 47.9451V44.4506C45.3483 44.3602 45.3426 44.2697 45.3313 44.1792C45.32 44.0888 45.303 43.9983 45.2804 43.9078C45.2578 43.8174 45.2352 43.7325 45.2126 43.6534C45.1899 43.5742 45.1617 43.4894 45.1277 43.3989C45.0938 43.3085 45.0542 43.2236 45.009 43.1445C44.9638 43.0653 44.9129 42.9918 44.8563 42.924C44.7998 42.8561 44.7489 42.7882 44.7037 42.7204L45.484 42.3133L46.0607 42.89C46.2643 43.071 46.4961 43.2123 46.7562 43.3141C47.0163 43.4159 47.2821 43.4668 47.5535 43.4668C48.1189 43.4668 48.6052 43.2745 49.0123 42.89L49.623 42.3133L51.3193 43.1614C51.7264 43.3876 51.93 43.7269 51.93 44.1792V47.9451C51.93 48.0356 51.9526 48.1204 51.9979 48.1995C52.0431 48.2787 52.1053 48.3409 52.1845 48.3861C52.2636 48.4314 52.3484 48.454 52.4389 48.454C52.5746 48.454 52.6934 48.4031 52.7951 48.3013C52.8969 48.1995 52.9478 48.0808 52.9478 47.9451V44.1792C52.9478 43.2971 52.552 42.6639 51.7604 42.2793ZM46.7053 30.1506C46.7053 30.1506 46.7675 30.1195 46.8919 30.0573C47.0163 29.9951 47.2312 29.964 47.5365 29.964C47.8419 29.964 48.1246 30.0262 48.3847 30.1506C48.6448 30.275 48.8483 30.4446 48.9954 30.6595C49.1424 30.8744 49.2159 31.1062 49.2159 31.355V31.4568C48.9445 31.3437 48.6731 31.2589 48.4016 31.2023C48.1302 31.1458 47.8475 31.1175 47.5535 31.1175C47.4404 31.1175 47.3386 31.1175 47.2481 31.1175C47.1577 31.1175 47.0616 31.1232 46.9598 31.1345C46.858 31.1458 46.7619 31.1628 46.6714 31.1854C46.5809 31.208 46.4905 31.2306 46.4 31.2532C46.3095 31.2758 46.2247 31.3041 46.1455 31.338C46.0664 31.372 45.9816 31.4115 45.8911 31.4568C45.8911 31.3889 45.8911 31.355 45.8911 31.355C45.8911 31.1062 45.9646 30.8744 46.1116 30.6595C46.2586 30.4446 46.4565 30.275 46.7053 30.1506ZM24.1442 42.3133L22.9907 41.1598C23.0133 41.0693 23.0246 40.9675 23.0246 40.8544V40.6509C23.1829 40.6961 23.3469 40.7357 23.5165 40.7696C23.6862 40.8035 23.8615 40.8205 24.0424 40.8205C24.0876 40.8205 24.1216 40.8205 24.1442 40.8205C24.3477 40.8205 24.54 40.8092 24.7209 40.7866C24.9019 40.764 25.0828 40.7187 25.2638 40.6509V40.8544C25.2638 40.9675 25.2751 41.0693 25.2977 41.1598L24.1442 42.3133ZM24.0763 39.8027C23.3299 39.7801 22.6966 39.4861 22.1764 38.9206C21.6562 38.3552 21.3961 37.688 21.3961 36.919V35.969C21.3961 35.9012 21.3848 35.822 21.3622 35.7315L21.0229 35.1208C20.9098 34.8721 20.8533 34.6233 20.8533 34.3745V34.3405C20.8533 33.7299 21.0682 33.2097 21.4979 32.7799C21.9276 32.3502 22.4478 32.1353 23.0585 32.1353H27.469V34.2388C27.469 34.578 27.3898 34.906 27.2315 35.2226L26.9601 35.7315L26.9262 35.969V37.0547C26.9262 37.8237 26.6434 38.4796 26.078 39.0224C25.8066 39.2938 25.4956 39.4974 25.145 39.6331C24.7944 39.7688 24.4382 39.8253 24.0763 39.8027ZM28.3171 41.6008L26.7226 41.1598C26.519 41.0919 26.3946 41.041 26.3494 41.0071C26.3042 40.9732 26.2815 40.9223 26.2815 40.8544V40.1759C26.4625 40.0402 26.6321 39.9045 26.7904 39.7688C26.8809 39.6783 26.9714 39.5765 27.0619 39.4634C27.1071 39.5313 27.1636 39.6048 27.2315 39.684C27.2993 39.7631 27.3672 39.8253 27.435 39.8706C28.091 40.2777 28.86 40.6509 29.7421 40.9901L28.3171 41.6008ZM37.8675 42.9918C37.8675 42.9918 37.695 43.0992 37.3501 43.3141C37.0052 43.529 36.4143 43.6364 35.5774 43.6364C34.7406 43.6364 33.9772 43.4215 33.2874 42.9918C32.5975 42.5621 32.0604 41.974 31.6759 41.2276L32.4222 40.9223C33.0555 40.6283 33.3722 40.142 33.3722 39.4634V38.2421C33.7115 38.3778 34.0677 38.4796 34.4409 38.5474C34.8141 38.6153 35.1929 38.6492 35.5774 38.6492C36.3464 38.6492 37.0815 38.5135 37.7826 38.2421V39.4634C37.7826 40.142 38.0993 40.6283 38.7326 40.9223L39.479 41.2276C39.0945 41.974 38.5573 42.5621 37.8675 42.9918ZM39.9879 40.3455L39.1397 39.9723C38.9135 39.8819 38.8004 39.7122 38.8004 39.4634V37.6993C39.6373 37.1564 40.2989 36.444 40.7851 35.5619C41.2714 34.6798 41.5146 33.7299 41.5146 32.7121V31.7621C41.5146 31.4455 41.4524 31.1458 41.328 30.8631C41.2036 30.5803 41.0283 30.3372 40.8021 30.1336C40.3724 29.7718 39.8861 29.4212 39.3433 29.0819C38.8004 28.7427 37.9919 28.3921 36.9175 28.0302C35.8432 27.6683 34.684 27.4308 33.44 27.3177C33.3496 27.2951 33.2648 27.3064 33.1856 27.3517C33.1064 27.3969 33.0386 27.4535 32.982 27.5213C32.9255 27.5892 32.8972 27.6683 32.8972 27.7588C32.8972 27.8493 32.9142 27.9341 32.9481 28.0132C32.982 28.0924 33.0329 28.1603 33.1008 28.2168C33.1686 28.2733 33.2478 28.3016 33.3383 28.3016C36.2107 28.5956 38.4725 29.4664 40.1236 30.914C40.1914 30.9592 40.248 31.0157 40.2932 31.0836C40.3384 31.1514 40.378 31.2193 40.4119 31.2872C40.4459 31.355 40.4685 31.4285 40.4798 31.5077C40.4911 31.5868 40.4968 31.6717 40.4968 31.7621V32.7121C40.4968 34.0691 40.0161 35.2283 39.0549 36.1895C38.0936 37.1508 36.9345 37.6314 35.5774 37.6314C34.2204 37.6314 33.0612 37.1508 32.0999 36.1895C31.1387 35.2283 30.6581 34.0691 30.6581 32.7121V32.271C30.6581 32.0675 30.7485 31.9091 30.9295 31.796C31.0652 31.7282 31.2009 31.6434 31.3366 31.5416C31.4723 31.4398 31.6137 31.3211 31.7607 31.1854C31.9077 31.0497 32.0434 30.9083 32.1678 30.7613C32.2922 30.6143 32.4109 30.439 32.524 30.2354C32.6371 30.0319 32.7276 29.817 32.7954 29.5908C32.8407 29.4777 32.8294 29.3533 32.7615 29.2176C32.6937 29.0819 32.5975 28.9915 32.4731 28.9462C32.3487 28.901 32.2243 28.9123 32.0999 28.9801C31.9756 29.048 31.8907 29.1498 31.8455 29.2855C31.8003 29.4212 31.7437 29.5512 31.6759 29.6756C31.608 29.8 31.5345 29.9131 31.4553 30.0149C31.3762 30.1167 31.2914 30.2128 31.2009 30.3033C31.1104 30.3938 31.02 30.4786 30.9295 30.5577C30.839 30.6369 30.7542 30.7047 30.675 30.7613C30.5959 30.8178 30.5111 30.8687 30.4206 30.914C30.3301 30.9818 30.2453 31.0497 30.1661 31.1175C30.087 31.1854 30.0135 31.2645 29.9456 31.355C29.8778 31.4455 29.8212 31.5416 29.776 31.6434C29.7307 31.7452 29.6968 31.8469 29.6742 31.9487C29.6516 32.0505 29.6403 32.1579 29.6403 32.271V32.7121C29.6403 33.7299 29.8834 34.6798 30.3697 35.5619C30.856 36.444 31.5175 37.1564 32.3544 37.6993V39.4634C32.3544 39.5087 32.3431 39.5596 32.3205 39.6161C32.2979 39.6727 32.2752 39.7235 32.2526 39.7688C32.23 39.814 32.1961 39.8536 32.1508 39.8875C32.1056 39.9215 32.0604 39.9497 32.0151 39.9723L31.167 40.3455C29.9004 40.0063 28.8373 39.5652 27.9779 39.0224C27.9779 38.9998 27.9779 38.9885 27.9779 38.9885C28.3624 36.6589 28.7129 33.4924 29.0296 29.489C29.0748 28.8105 29.1823 28.1772 29.3519 27.5892C29.5215 27.0011 29.7477 26.4583 30.0304 25.9607C30.3132 25.4631 30.6581 25.022 31.0652 24.6375C31.6306 24.0721 32.2979 23.6367 33.0669 23.3314C33.8359 23.026 34.6727 22.8734 35.5774 22.8734C37.4095 22.8734 38.9135 23.4614 40.0896 24.6375C41.311 25.8363 41.9895 27.4535 42.1252 29.489C42.4419 33.4924 42.7925 36.6589 43.177 38.9885C43.177 38.9885 43.177 38.9998 43.177 39.0224C42.3175 39.5652 41.2545 40.0063 39.9879 40.3455ZM45.4161 41.1937C45.4161 41.2163 45.4048 41.2276 45.3822 41.2276L43.7876 42.0419C43.7876 42.0419 43.782 42.0362 43.7707 42.0249C43.7594 42.0136 43.7424 42.0079 43.7198 42.0079L41.4128 40.9901C42.2949 40.6735 43.0639 40.3003 43.7198 39.8706C43.8329 39.8027 43.929 39.7122 44.0082 39.5992C44.0873 39.4861 44.1439 39.3617 44.1778 39.226C44.2117 39.0903 44.2174 38.9545 44.1948 38.8188C44.1721 38.7962 44.1608 38.7736 44.1608 38.751C44.4549 39.3164 44.8733 39.7914 45.4161 40.1759V41.1937ZM48.3338 42.1436C48.2433 42.2341 48.1415 42.302 48.0285 42.3472C47.9154 42.3924 47.8079 42.4264 47.7062 42.449C47.6044 42.4716 47.4969 42.4716 47.3839 42.449C47.2708 42.4264 47.1633 42.3924 47.0616 42.3472C46.9598 42.302 46.8636 42.2341 46.7732 42.1436L46.2982 41.7026C46.3887 41.5443 46.4339 41.3746 46.4339 41.1937V40.6509C46.5244 40.6961 46.6149 40.7244 46.7053 40.7357C46.7958 40.747 46.8863 40.764 46.9767 40.7866C47.0672 40.8092 47.1577 40.8205 47.2481 40.8205C47.3386 40.8205 47.4404 40.8205 47.5535 40.8205C47.938 40.8205 48.3112 40.764 48.6731 40.6509V41.1937C48.6731 41.2389 48.6731 41.2842 48.6731 41.3294C48.6731 41.3746 48.6787 41.4199 48.69 41.4651C48.7013 41.5103 48.7183 41.5499 48.7409 41.5839C48.7635 41.6178 48.7748 41.6574 48.7748 41.7026L48.3338 42.1436ZM47.5535 39.8027C46.8523 39.8027 46.236 39.5709 45.7045 39.1072C45.173 38.6436 44.8733 38.0611 44.8054 37.36L44.7376 37.1564C44.5793 36.885 44.4549 36.6023 44.3644 36.3083C44.2739 36.0142 44.2287 35.7202 44.2287 35.4262C44.2287 35.0643 44.2852 34.7194 44.3983 34.3914C44.5114 34.0635 44.6697 33.7638 44.8733 33.4924C45.0768 33.221 45.3143 32.9835 45.5857 32.7799C45.8572 32.5764 46.1625 32.418 46.5018 32.3049C46.841 32.1919 47.1916 32.1353 47.5535 32.1353C48.4582 32.1353 49.2328 32.4576 49.8775 33.1022C50.5221 33.7468 50.8444 34.5215 50.8444 35.4262C50.8444 35.7881 50.7878 36.1273 50.6747 36.444C50.245 36.0142 49.6739 35.6241 48.9614 35.2735C48.249 34.9229 47.7288 34.7024 47.4008 34.612C47.0729 34.5215 46.7958 34.4423 46.5696 34.3745C46.4113 34.3518 46.2699 34.3914 46.1455 34.4932C46.0211 34.595 45.9589 34.725 45.9589 34.8834C45.9589 34.906 45.9533 34.9399 45.942 34.9851C45.9307 35.0304 45.8911 35.1208 45.8232 35.2566C45.7554 35.3923 45.6649 35.5054 45.5518 35.5958C45.303 35.8446 45.303 36.0878 45.5518 36.3252C45.8006 36.5627 46.0381 36.5684 46.2643 36.3422C46.4 36.2065 46.5131 36.0651 46.6035 35.9181C46.694 35.7711 46.7732 35.6297 46.841 35.494C48.5147 36.0142 49.6569 36.6928 50.2676 37.5296C50.0867 38.5248 49.5325 39.2147 48.6052 39.5992C48.2433 39.7349 47.8927 39.8027 47.5535 39.8027ZM50.2676 44.8238C50.1771 44.8238 50.0923 44.8465 50.0132 44.8917C49.934 44.9369 49.8718 44.9991 49.8266 45.0783C49.7813 45.1575 49.7587 45.2423 49.7587 45.3327V47.9451C49.7587 48.0808 49.8096 48.1995 49.9114 48.3013C50.0132 48.4031 50.1319 48.454 50.2676 48.454C50.3581 48.454 50.4429 48.4314 50.5221 48.3861C50.6012 48.3409 50.6634 48.2787 50.7087 48.1995C50.7539 48.1204 50.7765 48.0356 50.7765 47.9451V45.3327C50.7765 45.197 50.7256 45.0783 50.6238 44.9765C50.5221 44.8747 50.4033 44.8238 50.2676 44.8238Z" fill="white"/>
</g>
<defs>
<clipPath id="clip0_23_1636">
<rect width="34.7692" height="35.9282" fill="white" transform="matrix(1 0 0 -1 18.1929 53.068)"/>
</clipPath>
</defs>
</svg>
