<svg width="71" height="71" viewBox="0 0 71 71" fill="none" xmlns="http://www.w3.org/2000/svg">
<rect x="0.94873" y="0.914307" width="69.5385" height="69.5385" rx="34.7692" fill="#1DA678"/>
<g clip-path="url(#clip0_23_1628)">
<path d="M39.5856 23.62C39.5856 23.62 39.5517 23.5861 39.4839 23.5182C39.416 23.4503 39.2916 23.4164 39.1107 23.4164C38.9297 23.4164 38.7714 23.4843 38.6357 23.62C38.5 23.7557 38.4321 23.914 38.4321 24.095C38.4321 24.2759 38.5 24.4342 38.6357 24.5699C38.7714 24.7056 38.9297 24.7735 39.1107 24.7735C39.2916 24.7735 39.4499 24.7056 39.5856 24.5699C39.7214 24.4342 39.7892 24.2759 39.7892 24.095C39.7892 23.914 39.7214 23.7557 39.5856 23.62ZM32.8003 23.62C32.8003 23.62 32.7664 23.5861 32.6986 23.5182C32.6307 23.4503 32.5063 23.4164 32.3254 23.4164C32.1444 23.4164 31.9861 23.4843 31.8504 23.62C31.7147 23.7557 31.6468 23.914 31.6468 24.095C31.6468 24.2759 31.7147 24.4342 31.8504 24.5699C31.9861 24.7056 32.1444 24.7735 32.3254 24.7735C32.5063 24.7735 32.6646 24.7056 32.8003 24.5699C32.936 24.4342 33.0039 24.2759 33.0039 24.095C33.0039 23.914 32.936 23.7557 32.8003 23.62ZM50.4421 38.0727C50.7362 37.6203 50.9567 37.1397 51.1037 36.6308C51.2507 36.1219 51.3242 35.63 51.3242 35.155C51.3242 34.4539 51.1716 33.781 50.8662 33.1364C50.5609 32.4918 50.1368 31.9546 49.594 31.5249C49.7297 31.2308 49.8258 30.9368 49.8824 30.6428C49.9389 30.3487 49.9672 30.0434 49.9672 29.7268C49.9672 28.7768 49.7127 27.8947 49.2038 27.0805C48.6949 26.2663 48.0334 25.6556 47.2191 25.2485C47.3548 24.2307 47.123 23.2977 46.5236 22.4495C45.9243 21.6014 45.127 21.0529 44.1318 20.8041C43.7473 19.8994 43.1536 19.17 42.3507 18.6158C41.5477 18.0617 40.6939 17.7846 39.7892 17.7846C38.9297 17.7846 38.1438 18.0108 37.4313 18.4632C36.7189 18.9155 36.1478 19.5036 35.718 20.2273C35.2883 19.5036 34.7172 18.9155 34.0047 18.4632C33.2923 18.0108 32.5063 17.7846 31.6468 17.7846C30.7421 17.7846 29.8883 18.0617 29.0854 18.6158C28.2825 19.17 27.6887 19.8994 27.3042 20.8041C26.3091 21.0529 25.5118 21.6014 24.9124 22.4495C24.3131 23.2977 24.0812 24.2307 24.2169 25.2485C23.4027 25.6556 22.7411 26.2663 22.2322 27.0805C21.7233 27.8947 21.4689 28.7768 21.4689 29.7268C21.4689 30.0434 21.4971 30.3487 21.5537 30.6428C21.6102 30.9368 21.7064 31.2308 21.8421 31.5249C21.2992 31.9546 20.8752 32.4918 20.5698 33.1364C20.2645 33.781 20.1118 34.4539 20.1118 35.155C20.1118 35.63 20.1853 36.1276 20.3323 36.6478C20.4794 37.168 20.6999 37.643 20.9939 38.0727C20.6999 38.4572 20.4794 38.8813 20.3323 39.3449C20.1853 39.8086 20.1118 40.2892 20.1118 40.7868C20.1118 41.4201 20.2362 42.0251 20.485 42.6019C20.7338 43.1786 21.0844 43.6932 21.5367 44.1455C21.3106 45.5478 21.6724 46.8427 22.6224 48.0301C23.5723 49.2176 24.7711 49.8113 26.2186 49.8113H26.2864C26.7614 50.6481 27.4173 51.3097 28.2542 51.796C29.091 52.2823 29.9957 52.5254 30.9683 52.5254C31.9861 52.5254 32.9134 52.254 33.7503 51.7112C34.5871 51.1683 35.2431 50.4559 35.718 49.5738C36.193 50.4559 36.8489 51.1683 37.6858 51.7112C38.5226 52.254 39.4499 52.5254 40.4677 52.5254C41.4403 52.5254 42.345 52.2823 43.1819 51.796C44.0187 51.3097 44.6746 50.6481 45.1496 49.8113H45.2175C46.5067 49.8113 47.6206 49.3193 48.5592 48.3355C49.4979 47.3516 49.9672 46.1924 49.9672 44.858C49.9672 44.7449 49.9615 44.6318 49.9502 44.5187C49.9389 44.4056 49.9219 44.2812 49.8993 44.1455C50.3517 43.6932 50.7022 43.1786 50.951 42.6019C51.1998 42.0251 51.3242 41.4201 51.3242 40.7868C51.3242 40.2892 51.2507 39.8086 51.1037 39.3449C50.9567 38.8813 50.7362 38.4572 50.4421 38.0727ZM35.0395 28.0644C34.8359 27.9513 34.6211 27.8608 34.3949 27.7929C34.1687 27.7251 33.9312 27.6912 33.6824 27.6912C33.5015 27.6912 33.3432 27.759 33.2075 27.8947C33.0718 28.0304 33.0039 28.1888 33.0039 28.3697C33.0039 28.5506 33.0718 28.709 33.2075 28.8447C33.3432 28.9804 33.5015 29.0482 33.6824 29.0482C34.0669 29.0482 34.3892 29.1783 34.6493 29.4384C34.9094 29.6985 35.0395 30.0208 35.0395 30.4053V43.2974C34.5419 42.7319 33.9425 42.2852 33.2414 41.9573C32.5402 41.6293 31.7825 41.4653 30.9683 41.4653C30.7874 41.4653 30.629 41.5332 30.4933 41.6689C30.3576 41.8046 30.2898 41.9629 30.2898 42.1439C30.2898 42.3248 30.3576 42.4831 30.4933 42.6188C30.629 42.7545 30.7874 42.8224 30.9683 42.8224C32.0992 42.8224 33.0604 43.2182 33.8521 44.0098C34.6437 44.8014 35.0395 45.7627 35.0395 46.8936C35.0395 48.0471 34.638 49.0479 33.8351 49.8961C33.0322 50.7442 32.0766 51.1683 30.9683 51.1683C30.1767 51.1683 29.4473 50.9535 28.78 50.5237C28.1128 50.094 27.6096 49.5172 27.2703 48.7935C27.2251 48.6578 27.1346 48.556 26.9989 48.4881C26.8632 48.4203 26.7275 48.3977 26.5918 48.4203H26.5239H26.4561C25.4835 48.556 24.5788 48.1715 23.742 47.2668C22.9051 46.3621 22.6337 45.299 22.9277 44.0777C22.9503 43.942 22.9447 43.8119 22.9108 43.6875C22.8768 43.5631 22.8033 43.467 22.6902 43.3992C22.3057 43.0599 22.006 42.6641 21.7912 42.2117C21.5763 41.7594 21.4689 41.2844 21.4689 40.7868C21.4689 40.4702 21.5141 40.1648 21.6046 39.8708C21.6951 39.5768 21.8195 39.3054 21.9778 39.0566C22.3849 39.3732 22.8316 39.6277 23.3179 39.8199C23.8042 40.0122 24.3187 40.1083 24.8615 40.1083C25.0425 40.1083 25.2008 40.0404 25.3365 39.9047C25.4722 39.769 25.5401 39.6107 25.5401 39.4297C25.5401 39.2488 25.4722 39.0905 25.3365 38.9548C25.2008 38.8191 25.0425 38.7512 24.8615 38.7512C23.9342 38.7512 23.1369 38.3893 22.4697 37.6656C21.8025 36.9418 21.4689 36.1049 21.4689 35.155C21.4689 34.5669 21.6102 34.0241 21.893 33.5265C22.1757 33.0289 22.5658 32.6218 23.0634 32.3052C23.1991 32.1921 23.2896 32.0507 23.3348 31.8811C23.3801 31.7115 23.3575 31.5475 23.267 31.3892C23.1313 31.1177 23.0238 30.8463 22.9447 30.5749C22.8655 30.3035 22.8259 30.0208 22.8259 29.7268C22.8259 28.8221 23.1539 27.9965 23.8098 27.2501C24.4657 26.5037 25.2686 26.1305 26.2186 26.1305C27.1233 26.1305 27.9149 26.4924 28.5935 27.2162C29.272 27.94 29.6112 28.7768 29.6112 29.7268C29.6112 29.9077 29.6791 30.066 29.8148 30.2017C29.9505 30.3374 30.1088 30.4053 30.2898 30.4053C30.4707 30.4053 30.629 30.3374 30.7647 30.2017C30.9005 30.066 30.9683 29.9077 30.9683 29.7268C30.9683 28.3923 30.499 27.2332 29.5604 26.2493C28.6217 25.2654 27.5078 24.7735 26.2186 24.7735C26.1055 24.7735 25.9924 24.7791 25.8793 24.7904C25.7662 24.8018 25.6532 24.8187 25.5401 24.8413V24.7735C25.5401 24.0271 25.8058 23.3882 26.3373 22.8566C26.8689 22.3251 27.5078 22.0594 28.2542 22.0594C28.6161 22.0594 28.961 22.1272 29.2889 22.2629C29.6169 22.3986 29.9166 22.5909 30.188 22.8397C30.3011 22.9754 30.4538 23.0432 30.646 23.0432C30.8383 23.0432 31.0022 22.9754 31.1379 22.8397C31.2736 22.7266 31.3415 22.5739 31.3415 22.3817C31.3415 22.1894 31.2736 22.0254 31.1379 21.8897C30.8213 21.5731 30.4707 21.3186 30.0862 21.1264C29.7017 20.9341 29.3059 20.8041 28.8988 20.7362C29.1928 20.3065 29.5773 19.9333 30.0523 19.6166C30.5273 19.3 31.0588 19.1417 31.6468 19.1417C32.5515 19.1417 33.3432 19.5036 34.0217 20.2273C34.7002 20.9511 35.0395 21.7879 35.0395 22.7379V28.0644ZM46.5745 40.1083C47.1173 40.1083 47.6319 40.0122 48.1182 39.8199C48.6045 39.6277 49.0512 39.3732 49.4583 39.0566C49.6166 39.3054 49.741 39.5768 49.8315 39.8708C49.9219 40.1648 49.9672 40.4702 49.9672 40.7868C49.9672 41.2844 49.8597 41.7594 49.6449 42.2117C49.43 42.6641 49.1303 43.0599 48.7458 43.3992C48.6327 43.467 48.5592 43.5631 48.5253 43.6875C48.4914 43.8119 48.4857 43.942 48.5083 44.0777L48.5762 44.4848L48.6101 44.858C48.6101 45.921 48.22 46.8144 47.4396 47.5382C46.6593 48.262 45.8394 48.556 44.98 48.4203H44.9121H44.8443C44.7086 48.3977 44.5728 48.4203 44.4371 48.4881C44.3014 48.556 44.211 48.6578 44.1657 48.7935C43.8265 49.5172 43.3232 50.094 42.656 50.5237C41.9888 50.9535 41.2594 51.1683 40.4677 51.1683C39.3595 51.1683 38.4039 50.7442 37.6009 49.8961C36.798 49.0479 36.3966 48.0471 36.3966 46.8936C36.3966 45.7627 36.7924 44.8014 37.584 44.0098C38.3756 43.2182 39.3369 42.8224 40.4677 42.8224C40.6487 42.8224 40.807 42.7545 40.9427 42.6188C41.0784 42.4831 41.1463 42.3248 41.1463 42.1439C41.1463 41.9629 41.0784 41.8046 40.9427 41.6689C40.807 41.5332 40.6487 41.4653 40.4677 41.4653C39.6535 41.4653 38.8958 41.6293 38.1947 41.9573C37.4935 42.2852 36.8941 42.7319 36.3966 43.2974V30.4053C36.3966 30.0208 36.5266 29.6985 36.7867 29.4384C37.0468 29.1783 37.3691 29.0482 37.7536 29.0482C37.9346 29.0482 38.0929 28.9804 38.2286 28.8447C38.3643 28.709 38.4321 28.5506 38.4321 28.3697C38.4321 28.1888 38.3643 28.0304 38.2286 27.8947C38.0929 27.759 37.9346 27.6912 37.7536 27.6912C37.5048 27.6912 37.2673 27.7251 37.0412 27.7929C36.815 27.8608 36.6001 27.9513 36.3966 28.0644V22.7379C36.3966 21.7879 36.7358 20.9511 37.4143 20.2273C38.0929 19.5036 38.8845 19.1417 39.7892 19.1417C40.3773 19.1417 40.9088 19.3 41.3838 19.6166C41.8587 19.9333 42.2432 20.3065 42.5373 20.7362C42.1301 20.8041 41.7343 20.9341 41.3498 21.1264C40.9653 21.3186 40.6148 21.5731 40.2981 21.8897C40.1624 22.0254 40.0945 22.1894 40.0945 22.3817C40.0945 22.5739 40.1624 22.7266 40.2981 22.8397C40.4338 22.9754 40.5978 23.0432 40.79 23.0432C40.9823 23.0432 41.135 22.9754 41.248 22.8397C41.5195 22.5909 41.8191 22.3986 42.1471 22.2629C42.4751 22.1272 42.82 22.0594 43.1819 22.0594C43.9282 22.0594 44.5672 22.3251 45.0987 22.8566C45.6302 23.3882 45.896 24.0271 45.896 24.7735V24.8413C45.7829 24.8187 45.6698 24.8018 45.5567 24.7904C45.4436 24.7791 45.3305 24.7735 45.2175 24.7735C43.9282 24.7735 42.8143 25.2654 41.8757 26.2493C40.9371 27.2332 40.4677 28.3923 40.4677 29.7268C40.4677 29.9077 40.5356 30.066 40.6713 30.2017C40.807 30.3374 40.9653 30.4053 41.1463 30.4053C41.3272 30.4053 41.4855 30.3374 41.6212 30.2017C41.7569 30.066 41.8248 29.9077 41.8248 29.7268C41.8248 28.7768 42.1641 27.94 42.8426 27.2162C43.5211 26.4924 44.3127 26.1305 45.2175 26.1305C46.1674 26.1305 46.9703 26.4981 47.6262 27.2332C48.2822 27.9682 48.6101 28.7994 48.6101 29.7268C48.6101 30.0208 48.5705 30.3035 48.4914 30.5749C48.4122 30.8463 48.3048 31.1177 48.1691 31.3892C48.0786 31.5475 48.056 31.7115 48.1012 31.8811C48.1464 32.0507 48.2369 32.1921 48.3726 32.3052C48.8702 32.6218 49.2604 33.0289 49.5431 33.5265C49.8258 34.0241 49.9672 34.5669 49.9672 35.155C49.9672 36.1049 49.6336 36.9418 48.9663 37.6656C48.2991 38.3893 47.5018 38.7512 46.5745 38.7512C46.3936 38.7512 46.2352 38.8191 46.0995 38.9548C45.9638 39.0905 45.896 39.2488 45.896 39.4297C45.896 39.6107 45.9638 39.769 46.0995 39.9047C46.2352 40.0404 46.3936 40.1083 46.5745 40.1083ZM33.5128 32.3052C33.3771 32.1695 33.2188 32.096 33.0378 32.0847C32.8569 32.0733 32.6986 32.1355 32.5629 32.2712C31.4772 33.2438 30.2615 33.4304 28.9158 32.831C27.57 32.2317 26.8971 31.1969 26.8971 29.7268C26.8971 29.5458 26.8293 29.3875 26.6936 29.2518C26.5579 29.1161 26.3995 29.0482 26.2186 29.0482C26.0377 29.0482 25.8793 29.1161 25.7436 29.2518C25.6079 29.3875 25.5401 29.5458 25.5401 29.7268C25.5401 30.9029 25.9189 31.932 26.6766 32.8141C27.4343 33.6962 28.3786 34.2277 29.5095 34.4086C29.3738 34.8157 29.1306 35.155 28.78 35.4264C28.4295 35.6978 28.028 35.8335 27.5757 35.8335C27.3947 35.8335 27.2364 35.9014 27.1007 36.0371C26.965 36.1728 26.8971 36.3311 26.8971 36.5121C26.8971 36.693 26.965 36.8513 27.1007 36.987C27.2364 37.1227 27.3947 37.1906 27.5757 37.1906C28.4125 37.1906 29.1419 36.9248 29.7639 36.3933C30.3859 35.8618 30.7647 35.2115 30.9005 34.4425C31.3754 34.3747 31.8278 34.2446 32.2575 34.0524C32.6873 33.8601 33.0831 33.5944 33.4449 33.2551C33.6033 33.142 33.6824 32.9894 33.6824 32.7971C33.6824 32.6049 33.6259 32.4409 33.5128 32.3052ZM26.2186 44.1795C26.0377 44.1795 25.8793 44.2473 25.7436 44.383C25.6079 44.5187 25.5401 44.6771 25.5401 44.858C25.5401 45.0389 25.6079 45.1973 25.7436 45.333C25.8793 45.4687 26.0377 45.5365 26.2186 45.5365C27.1233 45.5365 27.9149 45.8984 28.5935 46.6222C29.272 47.3459 29.6112 48.1828 29.6112 49.1327C29.6112 49.3137 29.6791 49.472 29.8148 49.6077C29.9505 49.7434 30.1088 49.8113 30.2898 49.8113C30.4707 49.8113 30.629 49.7434 30.7647 49.6077C30.9005 49.472 30.9683 49.3137 30.9683 49.1327C30.9683 47.7983 30.499 46.6391 29.5604 45.6553C28.6217 44.6714 27.5078 44.1795 26.2186 44.1795ZM31.6468 38.7512C30.4933 38.7512 29.4473 39.0396 28.5086 39.6163C27.57 40.1931 26.8406 40.9338 26.3204 41.8385C26.2299 41.9969 26.2129 42.1665 26.2695 42.3474C26.326 42.5284 26.4335 42.6641 26.5918 42.7545C26.7501 42.8676 26.9197 42.8959 27.1007 42.8394C27.2816 42.7828 27.4173 42.6754 27.5078 42.5171C27.9149 41.7933 28.486 41.2109 29.2211 40.7698C29.9562 40.3288 30.7647 40.1083 31.6468 40.1083C31.8278 40.1083 31.9861 40.0404 32.1218 39.9047C32.2575 39.769 32.3254 39.6107 32.3254 39.4297C32.3254 39.2488 32.2575 39.0905 32.1218 38.9548C31.9861 38.8191 31.8278 38.7512 31.6468 38.7512ZM43.8604 35.8335C43.408 35.8335 43.0066 35.6978 42.656 35.4264C42.3054 35.155 42.0623 34.8157 41.9266 34.4086C43.0575 34.2277 44.0018 33.6962 44.7594 32.8141C45.5171 31.932 45.896 30.9029 45.896 29.7268C45.896 29.5458 45.8281 29.3875 45.6924 29.2518C45.5567 29.1161 45.3984 29.0482 45.2175 29.0482C45.0365 29.0482 44.8782 29.1161 44.7425 29.2518C44.6068 29.3875 44.5389 29.5458 44.5389 29.7268C44.5389 30.6541 44.2053 31.4514 43.5381 32.1186C42.8709 32.7858 42.0736 33.1194 41.1463 33.1194C40.7391 33.1194 40.3377 33.0459 39.9419 32.8989C39.5461 32.7519 39.1898 32.5427 38.8732 32.2712C38.7375 32.1355 38.5792 32.0733 38.3982 32.0847C38.2173 32.096 38.059 32.1695 37.9232 32.3052C37.8102 32.4409 37.7536 32.6049 37.7536 32.7971C37.7536 32.9894 37.8328 33.142 37.9911 33.2551C38.353 33.5944 38.7488 33.8601 39.1785 34.0524C39.6083 34.2446 40.0606 34.3747 40.5356 34.4425C40.6713 35.2115 41.0501 35.8618 41.6721 36.3933C42.2941 36.9248 43.0235 37.1906 43.8604 37.1906C44.0413 37.1906 44.1997 37.1227 44.3354 36.987C44.4711 36.8513 44.5389 36.693 44.5389 36.5121C44.5389 36.3311 44.4711 36.1728 44.3354 36.0371C44.1997 35.9014 44.0413 35.8335 43.8604 35.8335ZM45.2175 44.1795C43.9282 44.1795 42.8143 44.6714 41.8757 45.6553C40.9371 46.6391 40.4677 47.7983 40.4677 49.1327C40.4677 49.3137 40.5356 49.472 40.6713 49.6077C40.807 49.7434 40.9653 49.8113 41.1463 49.8113C41.3272 49.8113 41.4855 49.7434 41.6212 49.6077C41.7569 49.472 41.8248 49.3137 41.8248 49.1327C41.8248 48.1828 42.1641 47.3459 42.8426 46.6222C43.5211 45.8984 44.3127 45.5365 45.2175 45.5365C45.3984 45.5365 45.5567 45.4687 45.6924 45.333C45.8281 45.1973 45.896 45.0389 45.896 44.858C45.896 44.6771 45.8281 44.5187 45.6924 44.383C45.5567 44.2473 45.3984 44.1795 45.2175 44.1795ZM45.1157 41.8385C44.5955 40.9338 43.866 40.1931 42.9274 39.6163C41.9888 39.0396 40.9427 38.7512 39.7892 38.7512C39.6083 38.7512 39.4499 38.8191 39.3142 38.9548C39.1785 39.0905 39.1107 39.2488 39.1107 39.4297C39.1107 39.6107 39.1785 39.769 39.3142 39.9047C39.4499 40.0404 39.6083 40.1083 39.7892 40.1083C40.6713 40.1083 41.4799 40.3288 42.215 40.7698C42.95 41.2109 43.5211 41.7933 43.9282 42.5171C44.0187 42.6754 44.1544 42.7828 44.3354 42.8394C44.5163 42.8959 44.6859 42.8676 44.8443 42.7545C45.0026 42.6641 45.11 42.5284 45.1666 42.3474C45.2231 42.1665 45.2061 41.9969 45.1157 41.8385Z" fill="#FFBC0A"/>
</g>
<defs>
<clipPath id="clip0_23_1628">
<rect width="34.7692" height="35.9282" fill="white" transform="matrix(1 0 0 -1 18.3335 53.0681)"/>
</clipPath>
</defs>
</svg>
